<?xml version="1.0" standalone="no"?>
<!DOCTYPE svg PUBLIC "-//W3C//DTD SVG 20010904//EN"
 "http://www.w3.org/TR/2001/REC-SVG-20010904/DTD/svg10.dtd">
<svg version="1.0" xmlns="http://www.w3.org/2000/svg"
 width="512.000000pt" height="512.000000pt" viewBox="0 0 512.000000 512.000000"
 preserveAspectRatio="xMidYMid meet">
<metadata>
Created by potrace 1.14, written by Peter Selinger 2001-2017
</metadata>
<g transform="translate(0.000000,512.000000) scale(0.100000,-0.100000)"
fill="#000000" stroke="none">
<path d="M2285 5044 c-254 -31 -448 -80 -680 -173 -11 -4 -78 -36 -150 -71
-375 -182 -727 -487 -963 -836 -194 -286 -341 -648 -392 -964 -7 -41 -14 -84
-16 -95 -19 -103 -26 -463 -11 -602 61 -574 319 -1110 726 -1513 59 -58 118
-114 131 -125 371 -303 737 -480 1157 -560 167 -32 256 -39 463 -40 201 0 286
6 425 30 491 85 944 311 1308 655 244 229 469 560 595 875 81 201 149 470 168
670 15 151 9 515 -10 610 -2 11 -9 54 -16 95 -54 335 -212 710 -423 1006 -148
207 -293 357 -525 545 -45 37 -241 163 -316 204 -207 112 -508 223 -682 251
-21 3 -41 7 -44 9 -7 4 -72 14 -200 30 -131 16 -413 15 -545 -1z m585 -508
c234 -40 469 -119 620 -206 25 -14 53 -29 62 -33 31 -11 201 -128 273 -188
224 -184 401 -407 531 -669 30 -60 54 -115 54 -123 0 -7 4 -17 9 -22 8 -10 67
-180 76 -221 2 -10 13 -62 24 -114 11 -52 21 -107 21 -123 l0 -27 -506 2 -506
3 -23 65 c-30 89 -59 148 -121 246 -75 121 -249 268 -396 337 -341 159 -728
118 -1031 -109 -162 -122 -297 -312 -352 -496 l-12 -43 -512 -3 c-282 -1 -510
1 -508 5 3 5 8 26 11 48 96 632 497 1184 1073 1478 152 77 358 151 478 171 17
3 55 10 85 16 30 6 84 14 120 17 36 3 67 7 69 9 11 9 386 -7 461 -20z m-193
-1492 c159 -39 296 -159 349 -305 24 -68 26 -79 30 -160 16 -383 -378 -634
-724 -462 -130 65 -237 206 -263 348 -13 70 -6 180 15 251 31 100 140 233 229
280 113 58 249 77 364 48z m-1063 -804 c47 -138 134 -279 236 -380 71 -71 142
-129 158 -130 6 0 12 -4 12 -9 0 -5 8 -11 18 -15 9 -3 32 -15 51 -27 198 -120
540 -151 781 -69 298 101 532 331 635 626 l24 69 507 3 506 2 -7 -62 c-10 -87
-57 -269 -101 -385 -264 -708 -908 -1209 -1659 -1290 -138 -15 -377 -9 -540
13 -75 10 -278 65 -374 101 -574 213 -1030 695 -1212 1278 -24 79 -57 219 -64
273 -3 24 -6 46 -6 50 -1 4 -1 10 0 15 0 4 229 6 507 5 l506 -3 22 -65z"/>
</g>
</svg>
